<?xml version="1.0" encoding="UTF-8" standalone="no"?>
<!-- Created with Inkscape (http://www.inkscape.org/) -->

<svg
   width="52.053791mm"
   height="53.638378mm"
   viewBox="0 0 52.053791 53.638378"
   version="1.1"
   id="svg1"
   xml:space="preserve"
   sodipodi:docname="cat-standing-happy-sparkles.svg"
   inkscape:version="1.4 (e7c3feb1, 2024-10-09)"
   xmlns:inkscape="http://www.inkscape.org/namespaces/inkscape"
   xmlns:sodipodi="http://sodipodi.sourceforge.net/DTD/sodipodi-0.dtd"
   xmlns="http://www.w3.org/2000/svg"
   xmlns:svg="http://www.w3.org/2000/svg"><sodipodi:namedview
     id="namedview1"
     pagecolor="#ffffff"
     bordercolor="#000000"
     borderopacity="0.25"
     inkscape:showpageshadow="2"
     inkscape:pageopacity="0.0"
     inkscape:pagecheckerboard="0"
     inkscape:deskcolor="#d1d1d1"
     inkscape:document-units="mm"
     inkscape:zoom="1.1788762"
     inkscape:cx="187.89081"
     inkscape:cy="61.075116"
     inkscape:window-width="1400"
     inkscape:window-height="619"
     inkscape:window-x="0"
     inkscape:window-y="25"
     inkscape:window-maximized="0"
     inkscape:current-layer="layer1" /><defs
     id="defs1" /><g
     id="layer1"
     transform="translate(-377.63638,-111.62578)"><path
       id="path444"
       style="fill:#000000"
       d="m 404.62331,164.60629 c -0.68627,-0.57746 -1.06009,-1.44937 -2.44087,-5.69315 l -1.63049,-5.01126 -0.95286,0.16899 c -1.20506,0.21372 -1.34047,0.34578 -1.61845,1.57829 -0.25185,1.11668 0.009,2.88365 0.72209,4.8914 0.44671,1.25777 0.44453,1.30699 -0.0901,2.02617 -0.77542,1.04312 -1.89793,1.10234 -3.01873,0.15924 -1.0228,-0.86063 -2.58067,-4.02246 -3.46323,-7.02893 -0.68599,-2.33682 -1.16426,-2.61173 -2.0501,-1.17841 -0.80827,1.30781 -0.93577,2.71452 -0.42456,4.68414 0.2455,0.94588 0.50385,2.26855 0.57411,2.93925 0.11441,1.09217 0.0512,1.27966 -0.60552,1.79624 -0.86917,0.68369 -1.99926,0.55768 -2.98011,-0.33229 -1.08675,-0.98605 -2.9036,-5.39582 -3.58775,-8.70803 -0.51976,-2.5163 -0.53183,-6.88778 -0.0256,-9.27695 l 0.38304,-1.80783 -1.80234,-1.77747 c -2.58923,-2.55353 -3.79955,-5.06743 -3.94948,-8.20333 -0.13042,-2.72787 0.22184,-4.64941 1.24543,-6.79366 1.36297,-2.8552 3.91632,-5.11843 5.79478,-5.13637 0.96732,-0.009 2.06716,0.69545 2.42185,1.55173 0.52369,1.2643 0.10979,2.30289 -1.70644,4.28201 -1.88301,2.05187 -2.51449,3.50779 -2.51449,5.7973 0,1.84828 0.94703,3.88864 2.27507,4.90159 0.87063,0.66406 0.96128,0.68108 1.50842,0.2833 1.59372,-1.15865 2.64685,-1.76759 4.15401,-2.40195 1.68684,-0.70998 3.70417,-1.87416 3.70417,-2.13764 0,-0.0807 -0.28749,-0.52564 -0.63886,-0.98887 -0.73751,-0.97228 -1.74239,-3.78635 -1.74239,-4.87935 0,-1.1533 0.72393,-3.66499 1.57229,-5.45507 0.42234,-0.89118 1.14527,-2.59653 1.60649,-3.78967 1.23811,-3.20285 2.68442,-5.37128 3.58258,-5.37128 0.51162,0 1.59598,1.24247 2.74713,3.14768 l 1.08506,1.79584 2.46565,0.30301 c 1.35611,0.16665 2.94169,0.47096 3.52351,0.67624 l 1.05786,0.37324 2.728,-1.8204 c 4.59813,-3.06834 5.56766,-2.81672 5.5513,1.44068 -0.005,1.32995 -0.18386,3.19199 -0.39723,4.13788 -0.21336,0.94589 -0.50121,2.61276 -0.63966,3.70417 -0.36717,2.89438 -0.93519,4.51932 -2.28171,6.52735 -1.167,1.7403 -1.18977,1.81395 -0.92303,2.98629 1.43275,6.29708 1.14943,22.66942 -0.44858,25.92287 -0.8675,1.76617 -2.73261,2.09327 -3.68116,0.64559 -0.35147,-0.5364 -0.4582,-1.36015 -0.48795,-3.76611 -0.0499,-4.03215 -0.57048,-7.23569 -1.15765,-7.12345 -0.66857,0.1278 -0.79356,2.32966 -0.33469,5.896 0.59812,4.64862 0.56852,5.63048 -0.18816,6.24321 -0.86167,0.69773 -1.95925,0.63075 -2.92067,-0.17823 z m 7.47247,-36.20774 c 0.24838,-0.64726 -0.34042,-2.22065 -1.03568,-2.76754 -1.46209,-1.15007 -3.50819,-0.91798 -4.73231,0.5368 -0.77012,0.91525 -0.83128,1.23972 -0.27395,1.45359 0.22921,0.0879 0.7906,-0.1943 1.33212,-0.66977 0.51478,-0.45198 1.10481,-0.82178 1.31118,-0.82178 0.86507,0 1.71691,0.65745 2.10342,1.62343 0.41313,1.03252 1.0289,1.33929 1.29522,0.64527 z m -11.3738,-2.51275 c -0.079,-1.63891 -1.91518,-2.85069 -3.6104,-2.38261 -0.95141,0.26269 -2.30182,1.56982 -2.30182,2.22804 0,0.70258 0.67837,0.56942 1.53409,-0.30113 0.47995,-0.48826 1.08897,-0.88775 1.35338,-0.88775 0.68398,0 1.87503,1.0066 1.87503,1.58465 0,0.49212 0.43772,0.81363 0.92604,0.68021 0.14552,-0.0398 0.24618,-0.45439 0.22368,-0.92141 z m 22.3982,7.529 c 0,-0.86596 -0.84642,-2.04229 -1.73737,-2.41455 -0.49965,-0.20877 -0.90847,-0.475 -0.90847,-0.59161 0,-0.11662 0.40104,-0.40327 0.89119,-0.63701 0.64001,-0.3052 1.03152,-0.76616 1.38907,-1.63551 0.4994,-1.21425 0.89474,-1.56884 0.89474,-0.80251 0,0.87122 0.81051,1.94305 1.71726,2.27093 1.12382,0.40638 1.15907,0.62586 0.1817,1.13128 -0.9864,0.51009 -1.40084,1.03989 -1.60878,2.05661 -0.18003,0.88028 -0.81934,1.3659 -0.81934,0.62237 z m 3.42518,-11.9813 c -0.14623,-0.40019 -0.32147,-0.8851 -0.38941,-1.0776 -0.0679,-0.19249 -0.59898,-0.54968 -1.18008,-0.79375 -1.22569,-0.5148 -1.32491,-0.76455 -0.3963,-0.99762 0.8094,-0.20314 1.61886,-1.18147 1.85063,-2.23669 0.23158,-1.05437 0.44538,-0.98531 1.06245,0.34316 0.35088,0.75538 0.80457,1.24871 1.38222,1.50295 1.03347,0.45488 1.06764,0.63256 0.19783,1.02887 -0.72821,0.33179 -1.71664,1.76725 -1.7182,2.49526 -0.002,0.71469 -0.51232,0.54766 -0.80914,-0.26458 z m -39.89178,-4.12505 c -0.4067,-0.9194 -0.73902,-1.24314 -1.66603,-1.62301 l -1.158,-0.47453 0.8325,-0.35094 c 1.00261,-0.42266 1.84715,-1.43777 2.08065,-2.50088 0.23484,-1.06921 0.47365,-0.98123 0.93147,0.34316 0.31172,0.90174 0.60955,1.22929 1.50361,1.65364 1.12749,0.53515 1.44724,0.92604 0.75749,0.92604 -0.71275,0 -1.98261,1.33313 -2.15742,2.26491 -0.0939,0.50055 -0.27097,0.91009 -0.39349,0.91009 -0.12251,0 -0.45137,-0.51682 -0.73078,-1.14848 z m 16.42279,12.42697 c 0.39183,-0.18432 0.0151,-0.78396 -0.51913,-0.68445 -0.95141,0.26269 -0.42388,0.40056 -0.31246,0.42951 0.638,0.16574 0.62569,0.28943 0.83159,0.25494 z"
       sodipodi:nodetypes="cscssscsssssssscccsscccssccscsccscccscsccsccsscsscccsscccsssccscssccssssssssssccsssscsccccccsccscscccsc" /></g></svg>
